<svg xmlns="http://www.w3.org/2000/svg" xmlns:xlink="http://www.w3.org/1999/xlink" width="18" height="18" viewBox="0 0 18 18"><defs><clipPath id="a"><rect width="18" height="18" fill="#fff"/></clipPath></defs><g clip-path="url(#a)"><path d="M10.764,11.649,6.35,10.727a1.029,1.029,0,0,1-.062.1l4.019,5.862.242-.242.684-4.252a.806.806,0,0,1-.469-.55ZM9.154,5.878a.915.915,0,0,1-.922.409L6.218,9.437,11.6,7.123c0-.022-.006-.042-.006-.064a.792.792,0,0,1,.013-.132L9.154,5.878ZM9.3,5.3l2.606,1.114a.8.8,0,0,1,.28-.141l.428-2.663L10.982,1.982,9.145,4.856A.915.915,0,0,1,9.3,5.3Zm5.461.456L13.125,4.125,12.77,6.333a.818.818,0,0,1,.239.182Zm-3.918,5.307a.8.8,0,0,1,.639-.411l.47-2.921a.809.809,0,0,1-.1-.084L6.439,9.98a1.07,1.07,0,0,1,.028.174Zm4.364-4.861-1.892.814,4.669,2L18,9,15.206,6.207Zm-3.381,6-.569,3.536,3.3-3.3-2.378-.5A.8.8,0,0,1,11.825,12.208ZM5.406,11.3a1.059,1.059,0,0,1-.341-.057l-1.1,1.717-.424-.424,1.039-1.626a1.129,1.129,0,0,1-.072-.1l-1.882.81-.446-.446,2.06-.887L.519,9.51.01,9l.161-.161,4.295.9a1.053,1.053,0,0,1,.188-.254L2.569,6.441,2.99,6.02,5.168,9.2a1.035,1.035,0,0,1,.5.007L7.711,6.015a.919.919,0,0,1-.233-.853L4.935,4.075l.446-.446L7.79,4.659A.922.922,0,0,1,8.68,4.5l1.879-2.941L9,0,0,9l9,9,.886-.886L5.837,11.207a1.063,1.063,0,0,1-.43.091Zm7.118-3.438-.478,2.97a.8.8,0,0,1,.3.549l2.712.566,2.483-2.483L13.054,7.547a.809.809,0,0,1-.53.315Z" transform="translate(0)" fill="#25c7b7"/></g></svg>