<svg xmlns="http://www.w3.org/2000/svg" xmlns:xlink="http://www.w3.org/1999/xlink" width="64" height="64" viewBox="0 0 64 64">
  <defs>
    <clipPath id="clip-path">
      <rect id="長方形_87" data-name="長方形 87" width="64" height="64" transform="translate(2275 -319)" fill="#fff"/>
    </clipPath>
  </defs>
  <g id="マスクグループ_12" data-name="マスクグループ 12" transform="translate(-2275 319)" clip-path="url(#clip-path)">
    <g id="レイヤー_2" data-name="レイヤー 2" transform="translate(2275 -316.32)">
      <g id="レイヤー_9" data-name="レイヤー 9">
        <path id="パス_89" data-name="パス 89" d="M32.02,39.88a159.261,159.261,0,0,0,16.41-.858c-.015.118-.028.232-.041.331-.439,3.694-1.566,13.2-4.453,16.456L13.679,52.223c-1.257-2.361-1.315-6.862-1.071-10.841q.03-.484.065-.955c.041-.551.086-1.09.134-1.6A150.59,150.59,0,0,0,32.02,39.88Z" fill="#eefffa"/>
        <path id="パス_90" data-name="パス 90" d="M49.4,29.463a156.249,156.249,0,0,0-17.42-.845A154.378,154.378,0,0,0,13.837,29.68c.639-4.8,1.795-10.878,4.088-13.247,1.085-1.121,4.02-1.646,7.665-1.711h.022a56.573,56.573,0,0,1,6.554.3l.732.076c.331.035.662.075.984.116l.452.06.4.055a56.453,56.453,0,0,1,6.377,1.23h.02c3.53.919,6.258,2.116,7.052,3.459a12.273,12.273,0,0,1,1.219,5.3c.018.311.03.624.04.944C49.466,27.309,49.446,28.387,49.4,29.463Z" fill="#eefffa"/>
        <path id="パス_91" data-name="パス 91" d="M48.59,37.781a116.772,116.772,0,0,1-16.574,1.131,106.9,106.9,0,0,1-19.079-1.419c.094-.9.189-1.686.262-2.31.033-.273.068-.6.106-.96.038-.331.075-.7.119-1.086.07-.642.151-1.359.243-2.129a110.212,110.212,0,0,1,18.316-1.419A114.039,114.039,0,0,1,49.33,30.71c-.033.5-.071.994-.113,1.48-.03.368-.065.73-.1,1.085C48.951,34.986,48.751,36.554,48.59,37.781Z" fill="#eefffa"/>
        <ellipse id="楕円形_9" data-name="楕円形 9" cx="2.843" cy="15.234" rx="2.843" ry="15.234" transform="matrix(0.118, -0.993, 0.993, 0.118, 13.345, 55.049)" fill="#e8f8f3"/>
        <path id="パス_92" data-name="パス 92" d="M41.107,16.559a56.453,56.453,0,0,0-6.377-1.232l-.4-.055-.452-.06c-.331-.041-.662-.081-.984-.116l-.732-.076a56.575,56.575,0,0,0-6.554-.3c.474-1.181-.194-2.2.2-2.923.432-.806,2.9-1.9,8.17-1.364,5.251.709,7.39,2.353,7.617,3.239C41.811,14.477,40.924,15.309,41.107,16.559Z" fill="#e8f8f3"/>
        <path id="パス_93" data-name="パス 93" d="M43.1,7.193c-.174.44-.344.848-.487,1.191-.245.571-.421.947-.421.947l-7.966-.946V8.41l-7.966-.946s-.089-.445-.2-1.1c-.06-.348-.123-.753-.184-1.186-.224-1.626-.386-3.61.051-4.125C26.7.139,31.748-.247,35.2.164s8.414,2.28,8.814,3.009C44.34,3.764,43.7,5.666,43.1,7.193Z" fill="#f3a988"/>
        <path id="パス_94" data-name="パス 94" d="M42.609,8.384c-.245.571-.421.947-.421.947l-7.966-.946V8.41l-7.966-.946s-.089-.445-.2-1.1a24.664,24.664,0,0,1,8.462-.442A27.613,27.613,0,0,1,42.609,8.384Z" opacity="0.1"/>
        <path id="パス_95" data-name="パス 95" d="M44.875,11.318a15.565,15.565,0,0,1-1.061,2.128c-.3.484-.593.843-.788.828-.5-.058-4.689-2.649-9.129-3.169s-9.124,1-9.617.946c-.2-.023-.4-.442-.575-.982a15.553,15.553,0,0,1-.535-2.318c-.086-.677,5.1-2.255,11.215-1.767C40.447,7.93,45.123,10.679,44.875,11.318Z" fill="#eefffa"/>
        <path id="パス_96" data-name="パス 96" d="M43.818,13.446c-.3.484-.593.843-.788.828-.5-.058-4.689-2.649-9.129-3.169s-9.124,1-9.617.946c-.2-.023-.4-.442-.575-.982A25.57,25.57,0,0,1,34.038,9.942,25.479,25.479,0,0,1,43.818,13.446Z" opacity="0.05"/>
        <path id="パス_97" data-name="パス 97" d="M45.585,35.436q.02-.209.03-.417c0-.121.013-.24.018-.363v-.515a.745.745,0,0,0,0-.086v-.21l-.01-.286h0c0-.1-.012-.2-.018-.293s-.013-.2-.022-.295h0c-.012-.134-.023-.272-.041-.407s-.031-.27-.051-.406a14.24,14.24,0,0,0-.432-1.972c-.015-.056-.033-.114-.05-.166h-.081L44.793,30l-.094-.013c-.227-.031-.57-.073-.979-.114l-.222-.02-.114-.046c-.063,0-.127-.012-.192-.015H43.08l-.252-.017a.73.73,0,0,1-.134-.008l-.263-.015c-.349-.015-.712-.02-1.071-.013a2.3,2.3,0,0,1-1.191-.277c-.066-.038-.132-.076-.2-.116h0l-.182-.132c-.194-.142-.376-.3-.568-.469a4,4,0,0,0-1.735-.96c-1.871-.457-5.685.662-6.688-1.646s.931-6.127.962-6.18a14.492,14.492,0,0,0-2.4.141,14.161,14.161,0,0,0-6.774,2.911c-.166.126-.32.257-.47.391s-.3.262-.444.4c-.293.275-.573.563-.843.861a14.322,14.322,0,0,0-1.861,2.6c0,.022.331.8.631,1.85.1.331.192.692.273,1.065a6.165,6.165,0,0,1,.02,3.477c-.055.128-.109.245-.166.359l-.1.22-.141.3c-.091.189-.166.361-.245.518-.025.051-.048.1-.07.152s-.043.1-.065.146c-.03.071-.058.139-.084.205a.225.225,0,0,1-.025.068c-.008.023-.031.086-.045.129s-.026.086-.038.128a3.015,3.015,0,0,0,.022,1.573,3.757,3.757,0,0,1,.083.894,4.426,4.426,0,0,1-.166,1.093,4.065,4.065,0,0,1-.331.828c.051.108.1.215.166.321h0c.01.018.02.036.028.055.033.066.066.129.1.194q.149.285.313.561c.036.063.075.126.113.185a.331.331,0,0,0,.018.033c.065.106.131.21.2.316.04.065.084.129.128.2l.147.214c.258.369.533.724.828,1.066l.209.242h0A14.146,14.146,0,0,0,22,44.868a14.471,14.471,0,0,0,1.679,1.283q.331.217.686.416c.076.045.156.088.233.129.194.108.392.209.594.306s.4.19.609.278q.245.1.5.2c.166.063.331.124.5.182h0c.128.045.255.086.384.126s.258.078.387.114c.166.05.348.1.525.136s.351.081.527.116.361.068.541.1c.331.053.662.093.994.123h.015c.185.015.373.026.558.035s.374.015.563.017.351,0,.527-.008l.432-.02c.235-.015.47-.035.707-.061.166-.018.316-.038.475-.061A14.184,14.184,0,0,0,42.3,43.331c.1-.126.209-.255.311-.384s.2-.262.3-.394.19-.27.283-.406.18-.275.27-.414.166-.282.255-.424c.066-.116.132-.233.2-.353.111-.205.217-.416.32-.626l.111-.24c.109-.237.209-.475.306-.717a.018.018,0,0,1,0-.013q.1-.248.184-.5c.058-.166.114-.331.166-.508.013-.04.023-.079.035-.121l.026-.088h0c.04-.141.078-.281.114-.424h0c.036-.142.07-.285.1-.429.048-.217.091-.435.129-.654q.068-.387.114-.78A2.437,2.437,0,0,0,45.585,35.436Zm-5.844,4.251-.166.063-.1.038c-.339.126-.714.25-1.083.381l-.166.06c-.306.111-.6.229-.866.354-.043.02-.084.041-.126.065a1.209,1.209,0,0,0-.113.06c-.041.023-.083.046-.121.073s-.071.045-.106.068l-.033.025c-1.051.752-.921,1.807-2.062,2.767a3.674,3.674,0,0,1-4.357-.475,2.335,2.335,0,0,1-.224-.416,6.372,6.372,0,0,1-.4-1.439c-.018-.106-.035-.212-.05-.321s-.03-.212-.041-.318c-.012-.078-.018-.166-.026-.235,0-.051-.012-.1-.015-.152-.012-.139-.022-.277-.031-.409-.022-.353-.028-.686-.025-.972V38.89a1.918,1.918,0,0,1,.045-.387.53.53,0,0,1,.017-.07,2.2,2.2,0,0,1,.1-.308c.015-.036.028-.073.046-.111.031-.073.068-.147.109-.222.026-.043.051-.089.078-.132s.051-.084.079-.128a3.725,3.725,0,0,1,.229-.311c.038-.05.079-.1.123-.147.124-.147.265-.295.419-.445.058-.058.119-.114.18-.166s.166-.156.263-.235l.166-.139c.149-.126.31-.253.479-.381.038-.031.076-.061.118-.089l.121-.091a2,2,0,0,1,.166-.119c.166-.121.331-.242.512-.364,2.9-2.01,3.681-1.835,4.261-1.6.139.055.315.113.513.179l.166.053c.146.05.3.1.46.166l.086.033c.176.068.354.146.535.235a1.135,1.135,0,0,1,.118.061l.119.065c.063.035.126.073.189.111s.166.111.25.166a.5.5,0,0,1,.05.038.165.165,0,0,1,.031.023l.091.075c.041.035.083.071.124.111l.063.061a.1.1,0,0,1,.023.023l.075.075.066.076c.03.035.06.071.088.109s.058.075.084.114c.055.078.1.166.152.245.066.126.128.245.18.364.018.035.033.071.048.108q.05.109.089.214c.02.046.036.093.053.137s.041.119.058.174.03.093.043.139c.025.093.048.182.068.272s.035.182.046.27c0,.043.012.084.015.126a.861.861,0,0,1,0,.093v.137a2.195,2.195,0,0,1,0,.233v.132a1.263,1.263,0,0,1-.023.194,3.62,3.62,0,0,1-.129.55c-.022.066-.045.131-.066.194l-.081.212a.2.2,0,0,1-.026.053.013.013,0,0,1,0,.008c-.013.023-.03.045-.046.068a.535.535,0,0,1-.058.066,1.139,1.139,0,0,1-.147.124,1.6,1.6,0,0,1-.184.118c-.066.036-.137.073-.215.111s-.2.089-.3.132Z" fill="#60caad"/>
        <path id="パス_98" data-name="パス 98" d="M45.012,30h-.081l-.134-.02-.094-.013c-.227-.031-.57-.073-.979-.114l-.222-.02-.118-.025c-.063,0-.127-.012-.192-.015H43.08l-.252-.017a.73.73,0,0,1-.134-.008l-.263-.015c-.349-.015-.712-.02-1.071-.013a2.3,2.3,0,0,1-1.191-.277c-.066-.038-.132-.076-.2-.116h0l-.182-.132a5.724,5.724,0,0,0-2.3-1.429c-1.871-.457-5.685.662-6.688-1.646s.931-6.127.962-6.18A14.251,14.251,0,0,1,45.012,30Z" fill="#84de81"/>
        <path id="パス_99" data-name="パス 99" d="M19.887,33.643c-.055.128-.109.245-.166.359l-.1.22-.141.3c-.091.189-.166.361-.245.518-.025.051-.048.1-.07.152s-.043.1-.065.146c-.03.071-.058.139-.084.205a.225.225,0,0,1-.025.068c-.008.023-.031.086-.045.129s-.026.086-.038.128a3.015,3.015,0,0,0,.022,1.573c.013.065.026.129.036.194s.015.094.02.142A.7.7,0,0,0,19,37.9a.173.173,0,0,1,0,.078c0,.123.01.242,0,.356h0a1.252,1.252,0,0,1,0,.137.94.94,0,0,1,0,.1,1.773,1.773,0,0,1-.026.232.583.583,0,0,1-.017.108c-.008.063-.022.124-.033.184a.533.533,0,0,1-.022.1c-.018.081-.04.166-.06.232s-.048.166-.073.23-.04.114-.06.166a.413.413,0,0,1-.018.048L18.635,40a2.722,2.722,0,0,1-.124.255c-.137-.29-.263-.586-.381-.888q-.224-.575-.4-1.174a14.355,14.355,0,0,1-.431-1.971,14.164,14.164,0,0,1,.363-5.82c.109-.4.237-.792.383-1.177a14.168,14.168,0,0,1,.912-1.977l.073.187.05.131c0,.018.013.033.018.051.124.331.311.859.5,1.48l.01.031c.02.071.041.147.061.224s.048.166.071.263.045.179.068.27.035.147.051.224a.341.341,0,0,1,.012.053,10.42,10.42,0,0,1,.26,1.861c0,.051,0,.1,0,.151v.331a.8.8,0,0,1-.01.154,3.053,3.053,0,0,1-.23.98Z" fill="#84de81"/>
        <path id="パス_100" data-name="パス 100" d="M41.008,38.051a4.285,4.285,0,0,1-.277.955c-.293.739-2.737,1.088-3.825,1.841l-.035.025c-1.051.753-.921,1.807-2.062,2.767a3.671,3.671,0,0,1-4.357-.475,2.335,2.335,0,0,1-.224-.416,6.2,6.2,0,0,1-.4-1.439,13.868,13.868,0,0,1-.19-2.418c.02-1.275,1.244-2.472,3.241-3.855,2.9-2.01,3.679-1.835,4.261-1.6.739.293,2.538.652,3.28,2.025A4.052,4.052,0,0,1,41.008,38.051Z" fill="#84de81"/>
        <path id="パス_101" data-name="パス 101" d="M45.585,35.436q.02-.209.03-.417c0-.121.013-.24.018-.363v-.811l-.01-.286h0c0-.1-.012-.2-.018-.293s-.015-.2-.023-.295h0c-.012-.136-.023-.272-.04-.407s-.031-.27-.051-.406a14.24,14.24,0,0,0-.432-1.972c-.015-.056-.033-.114-.05-.166h-.081L44.793,30l-.094-.013c-.227-.031-.57-.073-.979-.114l-.222-.02-.114-.046c-.063,0-.127-.012-.192-.015H43.08l-.252-.017a.73.73,0,0,1-.134-.008l-.263-.015c-.349-.015-.712-.02-1.071-.013a2.3,2.3,0,0,1-1.191-.277c-.066-.038-.132-.076-.2-.116h0c-.061-.043-.123-.086-.182-.132-.194-.142-.376-.3-.568-.469a4,4,0,0,0-1.735-.96c-1.871-.457-5.685.662-6.688-1.646s.931-6.127.962-6.18a14.492,14.492,0,0,0-2.4.141,14.161,14.161,0,0,0-6.774,2.911c-.166.126-.32.257-.47.391s-.3.262-.444.4c-.293.275-.573.563-.843.861a14.322,14.322,0,0,0-1.861,2.6c0,.022.331.8.631,1.85.1.331.192.692.273,1.065a6.165,6.165,0,0,1,.02,3.477c-.055.128-.109.245-.166.359l-.1.22-.141.3c-.091.189-.166.361-.245.518-.025.051-.048.1-.07.152s-.043.1-.065.146c-.03.071-.058.139-.084.205a.225.225,0,0,1-.025.068c-.008.023-.031.086-.045.129s-.026.086-.038.128a3.015,3.015,0,0,0,.022,1.573,3.757,3.757,0,0,1,.083.894,4.426,4.426,0,0,1-.166,1.093,4.065,4.065,0,0,1-.331.828c.051.108.1.215.166.321h0c.01.018.02.036.028.055.033.066.066.129.1.194q.149.285.313.561c.035.061.073.124.111.185l.02.033c.065.106.131.21.2.316.04.065.084.129.128.2l.147.214c.258.369.533.724.828,1.066l.209.242h0A14.146,14.146,0,0,0,22,44.868a14.471,14.471,0,0,0,1.679,1.283q.331.217.686.416c.076.045.156.088.233.129.194.108.392.209.594.306s.4.19.609.278q.245.1.5.2c.166.063.331.124.5.182h0c.128.045.255.086.384.126s.258.078.387.114c.166.05.348.1.525.136s.351.081.527.116.361.068.541.1q.5.079.994.123h.015c.185.015.373.026.558.035s.374.015.563.017.351,0,.527-.008l.432-.02c.235-.015.47-.035.707-.061.166-.018.316-.038.475-.061A14.184,14.184,0,0,0,42.3,43.331c.1-.126.209-.255.311-.384s.2-.262.3-.394.19-.27.283-.406.18-.275.27-.414.166-.282.255-.424c.066-.116.132-.233.2-.353.111-.205.217-.416.32-.626l.111-.24c.109-.237.209-.475.306-.717a.018.018,0,0,1,0-.013q.1-.248.184-.5c.058-.166.113-.331.166-.508.013-.04.023-.079.035-.121s.02-.058.028-.088h0c.04-.141.078-.281.114-.424h0c.036-.142.07-.285.1-.429.048-.217.091-.435.129-.654q.068-.387.114-.78A2.6,2.6,0,0,0,45.585,35.436ZM40.813,38.8l-.081.212a.2.2,0,0,1-.026.053.013.013,0,0,1,0,.008c-.013.023-.03.045-.046.068a.535.535,0,0,1-.058.066,1.14,1.14,0,0,1-.147.124c-.056.038-.118.078-.184.118s-.137.073-.215.111-.2.089-.3.132h0l-.166.063-.1.038c-.339.126-.714.25-1.083.381l-.166.06c-.306.111-.6.229-.866.354-.043.02-.084.041-.126.065a1.209,1.209,0,0,0-.113.06c-.041.023-.083.046-.121.073s-.071.045-.106.068l-.033.025c-1.051.752-.921,1.807-2.062,2.767a3.674,3.674,0,0,1-4.357-.475,2.335,2.335,0,0,1-.224-.416,6.372,6.372,0,0,1-.4-1.439c-.018-.106-.035-.212-.05-.321s-.03-.212-.041-.318c-.012-.078-.018-.166-.026-.235,0-.051-.012-.1-.015-.152-.012-.139-.022-.277-.031-.409-.022-.353-.028-.686-.025-.972V38.9a1.917,1.917,0,0,1,.045-.387.53.53,0,0,1,.017-.07,2.2,2.2,0,0,1,.1-.308c.015-.036.028-.073.046-.111.031-.073.068-.147.109-.222.026-.043.051-.089.078-.132s.051-.084.079-.128a3.726,3.726,0,0,1,.229-.311c.038-.05.079-.1.123-.147.124-.147.265-.295.419-.445.058-.058.119-.114.18-.166s.166-.156.263-.235l.166-.139c.149-.126.31-.253.479-.381.038-.031.076-.061.118-.089l.121-.091a2,2,0,0,1,.166-.119c.166-.121.331-.242.512-.364,2.9-2.01,3.681-1.835,4.261-1.6.139.055.315.113.513.179l.166.053c.146.05.3.1.46.166l.086.033c.176.068.354.146.535.235a1.135,1.135,0,0,1,.118.061l.119.065c.063.035.126.073.189.111s.166.111.25.166a.5.5,0,0,1,.05.038.166.166,0,0,1,.031.023l.091.075c.041.035.083.071.124.111l.063.061a.1.1,0,0,1,.023.023h0l.071.071.066.075c.03.035.06.071.088.109s.058.075.084.114c.055.078.1.166.152.245.066.126.128.245.18.364.018.035.033.071.048.108q.05.109.089.214c.02.046.036.093.053.137s.041.119.058.174.03.093.043.139c.025.093.048.182.068.272s.035.182.046.27c0,.043.012.084.015.126a.861.861,0,0,1,0,.093v.137a2.195,2.195,0,0,1,0,.233v.132a1.263,1.263,0,0,1-.023.194,3.62,3.62,0,0,1-.129.55c-.022.066-.045.131-.066.194Z" fill="#fcfffe" opacity="0.3"/>
        <path id="パス_102" data-name="パス 102" d="M45.012,30h-.081l-.134-.02-.094-.013c-.227-.031-.57-.073-.979-.114l-.222-.02-.118-.025c-.063,0-.127-.012-.192-.015H43.08l-.252-.017a.73.73,0,0,1-.134-.008l-.263-.015c-.349-.015-.712-.02-1.071-.013a2.3,2.3,0,0,1-1.191-.277c-.066-.038-.132-.076-.2-.116h0l-.182-.132a5.724,5.724,0,0,0-2.3-1.429c-1.871-.457-5.685.662-6.688-1.646s.931-6.127.962-6.18A14.251,14.251,0,0,1,45.012,30Z" fill="#fcfffe" opacity="0.3"/>
        <path id="パス_103" data-name="パス 103" d="M19.887,33.643c-.055.128-.109.245-.166.359l-.1.22-.141.3c-.091.189-.166.361-.245.518-.025.051-.048.1-.07.152s-.043.1-.065.146c-.03.071-.058.139-.084.205a.225.225,0,0,1-.025.068c-.008.023-.031.086-.045.129s-.026.086-.038.128a3.015,3.015,0,0,0,.022,1.573c.013.065.026.129.036.194s.015.094.02.142A.7.7,0,0,0,19,37.9a.173.173,0,0,1,0,.078c0,.123.01.242,0,.356h0a1.252,1.252,0,0,1,0,.137.94.94,0,0,1,0,.1,1.773,1.773,0,0,1-.026.232.583.583,0,0,1-.017.108c-.008.063-.022.124-.033.184a.533.533,0,0,1-.022.1c-.018.081-.04.166-.06.232s-.048.166-.073.23-.04.114-.06.166a.413.413,0,0,1-.018.048L18.635,40a2.722,2.722,0,0,1-.124.255c-.137-.29-.263-.586-.381-.888q-.224-.575-.4-1.174a14.355,14.355,0,0,1-.431-1.971,14.164,14.164,0,0,1,.363-5.82c.109-.4.237-.792.383-1.177a14.168,14.168,0,0,1,.912-1.977l.073.187.05.131c0,.018.013.033.018.051.124.331.311.859.5,1.48l.01.031c.02.071.041.147.061.224s.048.166.071.263.045.179.068.27.035.147.051.224a.341.341,0,0,1,.012.053,10.42,10.42,0,0,1,.26,1.861c0,.051,0,.1,0,.151v.331a.8.8,0,0,1-.01.154,3.053,3.053,0,0,1-.23.98Z" fill="#fcfffe" opacity="0.3"/>
        <path id="パス_104" data-name="パス 104" d="M41.008,38.051a4.285,4.285,0,0,1-.277.955c-.293.739-2.737,1.088-3.825,1.841l-.035.025c-1.051.753-.921,1.807-2.062,2.767a3.671,3.671,0,0,1-4.357-.475,2.335,2.335,0,0,1-.224-.416,6.2,6.2,0,0,1-.4-1.439,13.868,13.868,0,0,1-.19-2.418c.02-1.275,1.244-2.472,3.241-3.855,2.9-2.01,3.679-1.835,4.261-1.6.739.293,2.538.652,3.28,2.025A4.052,4.052,0,0,1,41.008,38.051Z" fill="#fcfffe" opacity="0.3"/>
        <path id="パス_105" data-name="パス 105" d="M45.608,33.252c0-.1-.015-.2-.023-.295h0C45.595,33.055,45.6,33.154,45.608,33.252Z" fill="#f1d785" opacity="0.37"/>
        <path id="パス_106" data-name="パス 106" d="M64,34.131c0-1.987-5.819-3.7-14.6-4.668-.018.416-.041.828-.068,1.247,5.33.828,8.688,2.063,8.692,3.444,0,1.447-3.666,2.752-9.439,3.626-.061.467-.116.884-.166,1.242C57.762,38.006,64.008,36.186,64,34.131ZM12.937,37.493c-4.315-.818-6.955-1.922-6.955-3.146,0-1.295,2.936-2.476,7.69-3.338.051-.427.108-.873.166-1.325C5.464,30.725,0,32.444,0,34.368c0,1.84,5.036,3.456,12.807,4.454C12.848,38.359,12.893,37.92,12.937,37.493Z" fill="#f1d785"/>
        <path id="パス_107" data-name="パス 107" d="M49.33,30.71a114.039,114.039,0,0,0-17.347-1.123,110.212,110.212,0,0,0-18.316,1.419c.051-.427.108-.873.166-1.325A154.409,154.409,0,0,1,31.977,28.62a156.239,156.239,0,0,1,17.418.845C49.38,29.879,49.357,30.3,49.33,30.71Z" fill="#f1d785"/>
        <path id="パス_108" data-name="パス 108" d="M48.59,37.781c-.061.467-.116.884-.166,1.242-1.205.132-2.466.25-3.767.353a.018.018,0,0,1,0-.013q.1-.248.184-.5c.058-.166.114-.331.166-.508.013-.04.023-.079.035-.121Q46.932,38.035,48.59,37.781Z" fill="#fdf7e8"/>
        <path id="パス_109" data-name="パス 109" d="M18.137,39.374c-1.888-.154-3.671-.331-5.33-.551.041-.464.086-.909.131-1.325,1.427.268,3.039.508,4.8.707Q17.912,38.8,18.137,39.374Z" fill="#fdf7e8"/>
        <path id="パス_110" data-name="パス 110" d="M26.353,32.724a4.28,4.28,0,0,1-1.379,2.343,3.587,3.587,0,0,1-2.429.866,2.575,2.575,0,0,1-1.966-.714,2.986,2.986,0,0,1-.636-2.09,6.085,6.085,0,0,1,.649-2.588A6.21,6.21,0,0,1,22.215,28.4a2.252,2.252,0,0,1,1.479-.563A3.643,3.643,0,0,1,25,28.2c.649.28.974.575.97.884a.707.707,0,0,1-.709.681,1.987,1.987,0,0,1-.652-.286,1.964,1.964,0,0,0-.924-.288q-.445,0-1.21.946a4.764,4.764,0,0,0-1.133,3.009,1.9,1.9,0,0,0,.23,1.124,1.274,1.274,0,0,0,.994.321,2.139,2.139,0,0,0,1.333-.416,2.649,2.649,0,0,0,.914-1.315,6,6,0,0,0-2,.449.763.763,0,0,1-.306.066.651.651,0,0,1-.507-.233.662.662,0,0,1-.179-.46q0-.758,1.8-1.04a14.3,14.3,0,0,1,2.355-.144.692.692,0,0,1,.5.2.672.672,0,0,1-.108,1.033Z" fill="#2b2b2b"/>
        <path id="パス_111" data-name="パス 111" d="M31.371,35.953q-.227,0-.717-.447a6.316,6.316,0,0,1-.8.32,1.951,1.951,0,0,1-.589.106,2.32,2.32,0,0,1-1.78-.662,3.036,3.036,0,0,1,.325-3.944A2.933,2.933,0,0,1,29.92,30.5,2.828,2.828,0,0,1,31,30.771q.742.331.739.747a.454.454,0,0,1-.118.306,3.446,3.446,0,0,0-.081.5c-.02.2-.031.427-.035.692a4.784,4.784,0,0,0,.121,1.346,5.463,5.463,0,0,0,.222.512,2.535,2.535,0,0,1,.187.482.541.541,0,0,1-.2.427.689.689,0,0,1-.465.172ZM30.18,32.6a3.46,3.46,0,0,1,.026-.363c.015-.137.04-.29.071-.457a1.078,1.078,0,0,0-.176-.073.5.5,0,0,0-.131-.025,1.583,1.583,0,0,0-1.181.515,1.9,1.9,0,0,0-.29,2.211.815.815,0,0,0,.709.341,1.7,1.7,0,0,0,.581-.094,1.821,1.821,0,0,0,.52-.295,15.566,15.566,0,0,1-.131-1.76Z" fill="#2b2b2b"/>
        <path id="パス_112" data-name="パス 112" d="M37,36.011q-.229,0-.717-.447a6.586,6.586,0,0,1-.8.32,1.941,1.941,0,0,1-.588.106,2.325,2.325,0,0,1-1.782-.662,3.039,3.039,0,0,1,.326-3.944,2.929,2.929,0,0,1,2.113-.828,2.827,2.827,0,0,1,1.085.277q.743.331.739.745a.457.457,0,0,1-.116.308,3.146,3.146,0,0,0-.083.5c-.02.2-.031.429-.033.692a4.8,4.8,0,0,0,.119,1.348c.01.03.083.2.222.512a2.673,2.673,0,0,1,.189.48.543.543,0,0,1-.205.429.692.692,0,0,1-.464.169ZM35.8,32.662a3.521,3.521,0,0,1,.026-.364c.017-.136.04-.288.071-.455a1.091,1.091,0,0,0-.174-.075.485.485,0,0,0-.131-.023,1.578,1.578,0,0,0-1.182.515,1.9,1.9,0,0,0-.29,2.211.818.818,0,0,0,.709.341,1.656,1.656,0,0,0,.581-.1,1.752,1.752,0,0,0,.52-.293A15.6,15.6,0,0,1,35.8,32.662Z" fill="#2b2b2b"/>
        <path id="パス_113" data-name="パス 113" d="M39.923,33.01c-.056,0-.2-.013-.416-.038q-.036.691-.053,2.272a.624.624,0,0,1-.187.449.613.613,0,0,1-.467.182.633.633,0,0,1-.465-.192.623.623,0,0,1-.18-.452l.015-1.378q0-.767.121-2.269t.126-2.275q.018-1.285.735-1.224a2.751,2.751,0,0,1,.465-.061q.295-.02.72-.015a3.012,3.012,0,0,1,1.813.646,2.076,2.076,0,0,1,.926,1.72,2.375,2.375,0,0,1-1.023,2,3.477,3.477,0,0,1-2.129.634Zm.285-3.729h-.28a1.258,1.258,0,0,0-.205.01c0,.156,0,.387-.012.7-.01.366-.048.936-.111,1.709a2.618,2.618,0,0,0,.331.043,2.153,2.153,0,0,0,1.285-.353,1.212,1.212,0,0,0,.553-1.027.924.924,0,0,0-.5-.752,1.944,1.944,0,0,0-1.065-.328Z" fill="#2b2b2b"/>
        <g id="グループ_70" data-name="グループ 70" opacity="0.1">
          <path id="パス_114" data-name="パス 114" d="M42.478,4.059a.373.373,0,0,0,0-.745A.373.373,0,0,0,42.478,4.059Z"/>
        </g>
        <g id="グループ_71" data-name="グループ 71" opacity="0.1">
          <path id="パス_115" data-name="パス 115" d="M39.336,5.63a.373.373,0,0,0,0-.745A.373.373,0,0,0,39.336,5.63Z"/>
        </g>
        <g id="グループ_72" data-name="グループ 72" opacity="0.1">
          <path id="パス_116" data-name="パス 116" d="M36.54,2.484a.373.373,0,0,0,0-.745A.373.373,0,0,0,36.54,2.484Z"/>
        </g>
        <g id="グループ_73" data-name="グループ 73" opacity="0.1">
          <path id="パス_117" data-name="パス 117" d="M32.952,4.933a.373.373,0,0,0,0-.745A.373.373,0,0,0,32.952,4.933Z"/>
        </g>
        <g id="グループ_74" data-name="グループ 74" opacity="0.1">
          <path id="パス_118" data-name="パス 118" d="M29.726,2.4a.373.373,0,0,0,0-.745A.373.373,0,0,0,29.726,2.4Z"/>
        </g>
        <g id="グループ_75" data-name="グループ 75" opacity="0.1">
          <path id="パス_119" data-name="パス 119" d="M27.281,4.933a.373.373,0,0,0,0-.745A.373.373,0,0,0,27.281,4.933Z"/>
        </g>
      </g>
    </g>
  </g>
</svg>
